<svg width="115" height="164" viewBox="0 0 115 164" fill="none" xmlns="http://www.w3.org/2000/svg">
<path fill-rule="evenodd" clip-rule="evenodd" d="M58.6436 0.0419163L53.8263 0.0208272C39.0406 -0.22558 27.8464 1.59063 16.7401 12.1525C5.45249 24.2855 0.335267 41.3739 0.504038 57.1027C0.505143 57.1546 0.506353 57.2064 0.507662 57.2579C0.51476 61.0129 0.779459 64.5119 1.27527 67.8077C1.27779 68.8733 1.46991 69.604 1.69649 70.276C1.69649 70.276 2.15567 72.5072 2.42599 73.5897C2.43154 74.0471 2.66454 74.7775 2.95989 75.5811C3.31789 76.8296 3.71222 78.0503 4.14096 79.2472L4.19848 79.407C4.81034 81.0999 5.49113 82.7451 6.23539 84.3535C8.32787 88.9502 10.9087 93.2432 13.8177 97.4506C17.5639 103.15 21.9934 108.603 26.6842 114.379C27.0269 114.801 27.3711 115.224 27.7165 115.65C33.6516 123.413 39.9005 131.914 42.2214 135.387C42.8064 136.407 43.397 137.355 43.9917 138.233C48.233 145.394 50.1143 151.25 51.4987 155.56C53.253 161.022 54.2096 164 58.1598 164C58.2475 164 58.3338 163.999 58.4186 163.996C58.5032 163.999 58.5891 164 58.6766 164C62.5129 164 63.4458 161.111 65.1475 155.842C66.6686 151.132 68.8039 144.519 74.1764 136.368C79.6265 127.979 85.3352 120.933 90.6858 114.329C103.643 98.3363 114.5 84.9356 114.5 61.3333C114.5 52.1623 112.199 43.5869 108.203 35.9643C105.592 31.0106 102.244 26.5162 98.3051 22.6103C101.764 19.7979 103.995 16.0482 105.707 11.5485L106.975 7.57146C107.734 5.2171 108.488 2.86106 109.23 0.501147C100.844 0.399814 92.4582 0.315016 84.0718 0.260987C80.6383 0.240869 77.2049 0.21843 73.7715 0.193742C68.7287 0.131001 63.6867 0.0692964 58.6436 0.0419163ZM71.2221 133.181C71.2222 132.932 71.2222 132.672 71.2222 132.398C69.9262 125.938 48.4533 95.4673 41.4992 85.9467L41.4932 85.9384C40.9268 85.163 40.4762 84.5461 40.1633 84.1153L30.2967 70.9993C30.2967 70.9993 92.2955 71.4872 92.7854 70.9993C97.227 66.5757 97.0919 64.9834 96.5904 59.07C96.3683 56.4506 96.0742 52.9833 96.0742 48.0464H28.6523C29.8474 39.1804 30.2702 36.0435 31.7611 33.5367C32.5775 32.1641 33.714 30.9804 35.4729 29.1486C40.2415 26.6928 43.9331 25.9167 49.2843 25.7821L52.7214 25.7916C56.4107 25.7193 60.0981 25.6533 63.7881 25.6279C67.61 25.6058 71.4306 25.5577 75.2522 25.5002C77.677 25.4593 80.102 25.4198 82.5269 25.3817C86.5083 25.358 90.4496 25.2707 94.4298 25.0935C94.5151 25.051 94.5999 25.0081 94.6841 24.9648C98.6008 28.715 101.913 33.0795 104.463 37.9153C108.16 44.9697 110.278 52.8791 110.278 61.3333C110.278 76.9063 105.283 87.6602 97.8748 98.1775C94.7439 102.622 91.228 106.962 87.4267 111.655L87.4211 111.662C86.6429 112.622 85.8528 113.598 85.0516 114.592C80.5674 120.155 75.8215 126.203 71.2221 133.181Z" fill="#DBE1FF"/>
</svg>
