<svg width="140" height="259" viewBox="0 0 140 259" fill="none" xmlns="http://www.w3.org/2000/svg">
<g filter="url(#filter0_d_307_5468)">
<path fill-rule="evenodd" clip-rule="evenodd" d="M71.1436 9.04192L66.3263 9.02083C51.5406 8.77442 40.3464 10.5906 29.2401 21.1525C17.9525 33.2855 12.8353 50.3739 13.004 66.1027C13.0051 66.1546 13.0064 66.2064 13.0077 66.2579C13.0148 70.0129 13.2795 73.5119 13.7753 76.8077C13.7778 77.8733 13.9699 78.604 14.1965 79.276C14.1965 79.276 14.6557 81.5072 14.926 82.5897C14.9315 83.0471 15.1645 83.7775 15.4599 84.5811C15.8179 85.8296 16.2122 87.0503 16.641 88.2472L16.6985 88.407C17.3103 90.0999 17.9911 91.7451 18.7354 93.3535C20.8279 97.9502 23.4087 102.243 26.3177 106.451C30.0639 112.15 34.4934 117.603 39.1842 123.379C39.5269 123.801 39.8711 124.224 40.2165 124.65C46.1516 132.413 52.4005 140.914 54.7214 144.387C55.3064 145.407 55.897 146.355 56.4917 147.233C60.733 154.394 62.6143 160.25 63.9987 164.56C65.753 170.022 66.7096 173 70.6598 173C70.7475 173 70.8338 172.999 70.9186 172.996C71.0032 172.999 71.0891 173 71.1766 173C75.0129 173 75.9458 170.111 77.6475 164.842C79.1686 160.132 81.3039 153.519 86.6764 145.368C92.1265 136.979 97.8352 129.933 103.186 123.329C116.143 107.336 127 93.9356 127 70.3333C127 61.1623 124.699 52.5869 120.703 44.9643C118.092 40.0106 114.744 35.5162 110.805 31.6103C114.264 28.7979 116.495 25.0482 118.207 20.5485L119.475 16.5715C120.234 14.2171 120.988 11.8611 121.73 9.50115C113.344 9.39981 104.958 9.31502 96.5718 9.26099C93.1383 9.24087 89.7049 9.21843 86.2715 9.19374C81.2287 9.131 76.1867 9.0693 71.1436 9.04192ZM83.7221 142.181C83.7222 141.932 83.7222 141.672 83.7222 141.398C82.4262 134.938 60.9533 104.467 53.9992 94.9467L53.9932 94.9384C53.4268 94.163 52.9762 93.5461 52.6633 93.1153L42.7967 79.9993C42.7967 79.9993 104.796 80.4872 105.285 79.9993C109.727 75.5757 109.592 73.9834 109.09 68.07C108.868 65.4506 108.574 61.9833 108.574 57.0464H41.1523C42.3474 48.1804 42.7702 45.0435 44.2611 42.5367C45.0775 41.1641 46.214 39.9804 47.9729 38.1486C52.7415 35.6928 56.4331 34.9167 61.7843 34.7821L65.2214 34.7916C68.9107 34.7193 72.5981 34.6533 76.2881 34.6279C80.11 34.6058 83.9306 34.5577 87.7522 34.5002C90.177 34.4593 92.602 34.4198 95.0269 34.3817C99.0083 34.358 102.95 34.2707 106.93 34.0935C107.015 34.051 107.1 34.0081 107.184 33.9648C111.101 37.715 114.413 42.0795 116.963 46.9153C120.66 53.9697 122.778 61.8791 122.778 70.3333C122.778 85.9063 117.783 96.6602 110.375 107.178C107.244 111.622 103.728 115.962 99.9267 120.655L99.9211 120.662C99.1429 121.622 98.3528 122.598 97.5516 123.592C93.0674 129.155 88.3215 135.203 83.7221 142.181Z" fill="#DBE1FF"/>
</g>
<g filter="url(#filter1_d_307_5468)">
<path d="M47.2528 220.796C46.2928 220.796 44.9608 220.64 43.2568 220.328C40.8568 222.152 38.6368 223.064 36.5968 223.064C36.5248 223.064 36.4528 223.064 36.3808 223.064C34.9168 223.04 33.7648 222.656 32.9248 221.912C32.1088 221.144 31.7008 220.136 31.7008 218.888C31.7008 217.616 32.1088 216.584 32.9248 215.792C33.7648 215 35.0008 214.604 36.6328 214.604C37.7128 214.604 39.4408 214.964 41.8168 215.684C44.3128 216.428 46.1728 216.8 47.3968 216.8C49.4128 216.8 50.7448 216.08 51.3928 214.64L52.7968 215.612C52.2688 219.068 50.4208 220.796 47.2528 220.796ZM35.2648 219.968C35.2648 220.568 35.7808 220.868 36.8128 220.868C37.8448 220.868 39.1048 220.484 40.5928 219.716C38.4808 219.188 37.0288 218.924 36.2368 218.924C35.9728 218.924 35.7448 219.032 35.5528 219.248C35.3608 219.44 35.2648 219.68 35.2648 219.968ZM45.0928 222.632L44.5168 226.484H49.8808C50.0968 226.988 50.2048 227.48 50.2048 227.96C50.2048 228.44 49.9768 228.848 49.5208 229.184C49.0648 229.496 48.4888 229.652 47.7928 229.652H44.0128L43.9768 229.976C47.0008 231.416 48.5128 233.552 48.5128 236.384C48.5128 238.52 47.9488 240.032 46.8208 240.92C45.6928 241.784 44.3608 242.216 42.8248 242.216C41.2888 242.216 40.1008 241.832 39.2608 241.064C38.4208 240.272 38.0008 239.228 38.0008 237.932C38.0008 237.716 38.0248 237.44 38.0728 237.104L39.0448 229.652H35.6608C35.8048 228.284 35.9248 227.228 36.0208 226.484H39.4768L39.8728 223.316C41.1208 222.716 42.1648 222.416 43.0048 222.416C43.8448 222.416 44.5408 222.488 45.0928 222.632ZM43.9408 238.94C44.5168 238.94 45.0208 238.736 45.4528 238.328C45.8848 237.896 46.1008 237.224 46.1008 236.312C46.1008 234.512 45.2848 233.132 43.6528 232.172C43.2688 234.836 43.0648 236.504 43.0408 237.176C43.0408 237.824 43.1248 238.28 43.2928 238.544C43.4848 238.808 43.7008 238.94 43.9408 238.94ZM56.8167 242.252C55.3527 242.252 54.2007 241.844 53.3607 241.028C52.5207 240.188 52.1007 239.048 52.1007 237.608C52.1007 237.224 52.7487 231.524 54.0447 220.508C54.3807 217.676 55.2807 215.888 56.7447 215.144C57.4167 214.784 58.2207 214.604 59.1567 214.604C62.3247 214.604 63.9087 216.068 63.9087 218.996C63.9087 219.236 63.8967 219.488 63.8727 219.752C63.6327 222.968 61.6167 226.244 57.8247 229.58C57.7047 230.756 57.5727 231.896 57.4287 233C57.1407 235.472 56.9967 236.84 56.9967 237.104C56.9967 238.352 57.5367 238.976 58.6167 238.976C59.7927 238.976 60.8847 238.304 61.8927 236.96C62.9247 235.592 63.7167 233.852 64.2687 231.74C64.4847 231.812 64.7847 232.016 65.1687 232.352C65.5527 232.664 65.8167 232.94 65.9607 233.18C65.5767 235.172 64.7127 237.08 63.3687 238.904C62.6967 239.84 61.8447 240.608 60.8127 241.208C59.6367 241.904 58.3047 242.252 56.8167 242.252ZM58.2207 225.98C60.4287 223.556 61.5327 221.384 61.5327 219.464C61.5327 218.312 61.1007 217.736 60.2367 217.736C59.6847 217.784 59.3127 218.144 59.1207 218.816C58.9527 219.488 58.7847 220.58 58.6167 222.092C58.4727 223.604 58.3767 224.54 58.3287 224.9L58.2207 225.98ZM79.0526 225.044C78.0686 232.82 77.5766 236.96 77.5766 237.464C77.5766 238.424 77.9246 238.904 78.6206 238.904C79.2446 238.904 79.9166 238.484 80.6366 237.644C81.3806 236.78 81.9686 235.496 82.4006 233.792C83.1926 234.656 83.6726 235.328 83.8406 235.808C83.2886 238.136 82.4126 239.78 81.2126 240.74C80.0126 241.7 78.7766 242.18 77.5046 242.18C75.4166 242.18 74.0126 241.376 73.2926 239.768C72.0446 241.376 70.3766 242.18 68.2886 242.18C66.5606 242.18 65.2286 241.748 64.2926 240.884C63.3566 240.02 62.8886 238.892 62.8886 237.5C62.8886 237.164 62.9486 236.576 63.0686 235.736C63.6206 231.272 64.0406 227.72 64.3286 225.08C65.0726 224.816 65.7566 224.684 66.3806 224.684C67.0046 224.684 67.4726 224.708 67.7846 224.756C68.0966 224.804 68.3966 224.984 68.6846 225.296C68.9726 225.608 69.1166 226.052 69.1166 226.628L67.9286 235.808C67.8806 236.096 67.8566 236.36 67.8566 236.6C67.8566 238.016 68.5046 238.724 69.8006 238.724C71.0006 238.724 71.9966 238.136 72.7886 236.96C72.7886 236.696 72.8126 236.276 72.8606 235.7L74.0486 226.124C74.2166 225.716 74.5766 225.38 75.1286 225.116C75.6806 224.828 76.3646 224.684 77.1806 224.684C78.0206 224.684 78.6446 224.804 79.0526 225.044ZM99.0627 237.572C98.6787 239.06 98.0667 240.212 97.2267 241.028C96.3867 241.82 95.3907 242.216 94.2387 242.216C93.1107 242.216 92.2347 241.988 91.6107 241.532C91.0107 241.076 90.4467 240.308 89.9187 239.228L88.7667 236.996L87.0027 239.552C85.8507 241.208 84.6507 242.036 83.4027 242.036C82.4427 242.036 81.6987 241.772 81.1707 241.244C80.6667 240.692 80.4147 240.032 80.4147 239.264C80.4147 237.968 80.9187 236.96 81.9267 236.24C82.9587 235.496 84.0507 235.124 85.2027 235.124C85.5387 235.124 85.8867 235.16 86.2467 235.232L87.1107 233.936C85.3827 230.816 84.4347 229.124 84.2667 228.86C83.9787 228.452 83.7027 228.248 83.4387 228.248C83.1987 228.248 82.9947 228.344 82.8267 228.536C82.6587 228.704 82.5747 228.944 82.5747 229.256C82.5747 229.568 82.6227 229.916 82.7187 230.3L81.8187 230.552C81.6027 230.264 81.4227 229.856 81.2787 229.328C81.1347 228.776 81.0627 228.344 81.0627 228.032C81.0627 226.856 81.4347 225.944 82.1787 225.296C82.9227 224.624 83.8947 224.288 85.0947 224.288C86.5587 224.288 87.6987 225.08 88.5147 226.664L89.9907 229.508L91.9707 226.412C92.5467 225.524 93.0747 224.936 93.5547 224.648C94.0347 224.336 94.6467 224.18 95.3907 224.18C96.1587 224.18 96.8187 224.456 97.3707 225.008C97.9227 225.536 98.1987 226.172 98.1987 226.916C98.1987 228.188 97.7427 229.172 96.8307 229.868C95.9187 230.564 94.9107 230.912 93.8067 230.912C93.5907 230.912 93.3147 230.888 92.9787 230.84L91.6827 232.748C93.3147 235.916 94.2147 237.656 94.3827 237.968C94.7427 238.616 95.1987 238.94 95.7507 238.94C96.4947 238.94 97.0827 238.28 97.5147 236.96L97.6587 236.528C97.6827 236.456 97.7427 236.216 97.8387 235.808L99.0627 237.572ZM95.9667 226.952C95.7267 226.952 95.4987 227.084 95.2827 227.348C95.0907 227.588 94.6227 228.296 93.8787 229.472C94.5267 229.472 95.1387 229.316 95.7147 229.004C96.2907 228.668 96.5907 228.248 96.6147 227.744C96.6387 227.216 96.4227 226.952 95.9667 226.952ZM85.0587 236.564C84.3867 236.564 83.7387 236.732 83.1147 237.068C82.4907 237.404 82.1787 237.824 82.1787 238.328C82.1787 238.832 82.3947 239.084 82.8267 239.084C83.3307 239.084 84.1707 238.244 85.3467 236.564H85.0587ZM109.026 224.684C111.234 224.684 113.07 225.392 114.534 226.808C116.022 228.224 116.766 229.952 116.766 231.992C116.766 235.088 115.854 237.572 114.03 239.444C112.23 241.292 110.046 242.216 107.478 242.216C104.91 242.216 102.87 241.484 101.358 240.02C99.8703 238.556 99.1263 236.744 99.1263 234.584C99.1263 231.56 100.05 229.16 101.898 227.384C103.77 225.584 106.146 224.684 109.026 224.684ZM108.306 227.6C107.178 227.6 106.23 228.248 105.462 229.544C104.694 230.84 104.274 232.472 104.202 234.44C104.202 235.832 104.478 236.984 105.03 237.896C105.606 238.808 106.47 239.264 107.622 239.264C108.774 239.264 109.734 238.628 110.502 237.356C111.294 236.084 111.69 234.632 111.69 233C111.69 231.368 111.414 230.072 110.862 229.112C110.31 228.104 109.458 227.6 108.306 227.6Z" fill="white"/>
</g>
<defs>
<filter id="filter0_d_307_5468" x="0" y="0" width="140" height="190" filterUnits="userSpaceOnUse" color-interpolation-filters="sRGB">
<feFlood flood-opacity="0" result="BackgroundImageFix"/>
<feColorMatrix in="SourceAlpha" type="matrix" values="0 0 0 0 0 0 0 0 0 0 0 0 0 0 0 0 0 0 127 0" result="hardAlpha"/>
<feOffset dy="4"/>
<feGaussianBlur stdDeviation="6.5"/>
<feComposite in2="hardAlpha" operator="out"/>
<feColorMatrix type="matrix" values="0 0 0 0 0 0 0 0 0 0 0 0 0 0 0 0 0 0 0.45 0"/>
<feBlend mode="normal" in2="BackgroundImageFix" result="effect1_dropShadow_307_5468"/>
<feBlend mode="normal" in="SourceGraphic" in2="effect1_dropShadow_307_5468" result="shape"/>
</filter>
<filter id="filter1_d_307_5468" x="30.7007" y="214.604" width="87.0654" height="29.648" filterUnits="userSpaceOnUse" color-interpolation-filters="sRGB">
<feFlood flood-opacity="0" result="BackgroundImageFix"/>
<feColorMatrix in="SourceAlpha" type="matrix" values="0 0 0 0 0 0 0 0 0 0 0 0 0 0 0 0 0 0 127 0" result="hardAlpha"/>
<feOffset dy="1"/>
<feGaussianBlur stdDeviation="0.5"/>
<feComposite in2="hardAlpha" operator="out"/>
<feColorMatrix type="matrix" values="0 0 0 0 0 0 0 0 0 0 0 0 0 0 0 0 0 0 0.25 0"/>
<feBlend mode="normal" in2="BackgroundImageFix" result="effect1_dropShadow_307_5468"/>
<feBlend mode="normal" in="SourceGraphic" in2="effect1_dropShadow_307_5468" result="shape"/>
</filter>
</defs>
</svg>
