<svg width="259" height="332" viewBox="0 0 259 332" fill="none" xmlns="http://www.w3.org/2000/svg">
<g filter="url(#filter0_dd_532_22363)">
<path d="M170.798 43.6394C181.379 51.9857 191.872 60.2471 202.356 68.5201C208.02 72.9904 213.616 77.5503 219.342 81.9407C224.193 85.6601 223.596 91.2623 221.139 94.0814C220.086 95.2887 218.779 96.0025 217.281 96.4564C199.362 101.886 181.38 107.11 163.55 112.832C146.565 118.282 129.743 124.157 113.851 132.378C101.609 138.711 90.3472 146.44 80.675 156.32C68.8002 168.45 60.195 182.489 56.2571 199.149C54.9531 204.666 54.1769 210.251 53.9561 215.948C53.6223 224.565 54.5503 233.007 56.5472 241.363C56.5974 241.573 56.6219 241.788 56.676 242.105C55.8379 242.239 55.5357 241.642 55.1466 241.218C46.433 231.719 41.206 220.468 38.4313 207.982C37.3728 203.219 36.7738 198.402 36.3571 193.537C34.7528 174.809 38.5939 157.18 47.0798 140.544C53.6641 127.636 62.7563 116.649 73.6063 107.065C84.2166 97.6921 96.3738 90.7072 108.689 83.9298C114.51 80.7264 120.409 77.6247 125.675 73.5128C129.321 70.6657 131.813 67.0286 133.059 62.5449C133.294 61.7002 133.323 60.8684 133.324 60.0191C133.33 49.9549 133.313 39.8907 133.343 29.8265C133.36 24.1168 138.62 20.5111 143.849 22.5981C145.461 23.2416 146.645 24.5295 147.977 25.5774C155.57 31.5506 163.133 37.5613 170.798 43.6394Z" fill="url(#paint0_linear_532_22363)"/>
<path d="M69.8685 217.24C70.7281 210.725 71.8989 204.443 74.0828 198.384C78.1419 187.121 84.6077 177.428 93.0264 168.962C103.331 158.6 115.606 151.253 128.871 145.437C144.823 138.442 161.562 133.784 178.255 129C185.069 127.047 191.885 125.1 198.699 123.144C202.464 122.063 205.501 123.405 206.639 126.665C207.047 127.833 207.05 129.012 206.662 130.175C203.173 140.627 199.593 151.044 194.54 160.878C189.874 169.958 182.7 175.892 172.611 177.942C165.119 179.463 157.568 180.695 150.059 182.135C135.521 184.922 122.097 190.199 111.23 200.597C102.631 208.824 97.1993 218.814 96.005 230.826C94.2962 248.015 100.648 261.892 113.566 272.994C115.678 274.809 118.033 276.316 120.498 277.63C121.032 277.914 121.65 278.095 122.022 278.951C119.381 279.126 116.872 278.818 114.445 278.273C97.3273 274.434 83.9377 265.359 75.3863 249.814C71.9866 243.634 70.2732 236.903 69.7891 229.822C69.5048 225.662 69.7994 221.538 69.8685 217.24Z" fill="url(#paint1_linear_532_22363)"/>
</g>
<defs>
<filter id="filter0_dd_532_22363" x="0" y="0" width="259" height="332" filterUnits="userSpaceOnUse" color-interpolation-filters="sRGB">
<feFlood flood-opacity="0" result="BackgroundImageFix"/>
<feColorMatrix in="SourceAlpha" type="matrix" values="0 0 0 0 0 0 0 0 0 0 0 0 0 0 0 0 0 0 127 0" result="hardAlpha"/>
<feOffset dy="17"/>
<feGaussianBlur stdDeviation="18"/>
<feComposite in2="hardAlpha" operator="out"/>
<feColorMatrix type="matrix" values="0 0 0 0 0.0313726 0 0 0 0 0.627451 0 0 0 0 0.968627 0 0 0 0.25 0"/>
<feBlend mode="normal" in2="BackgroundImageFix" result="effect1_dropShadow_532_22363"/>
<feColorMatrix in="SourceAlpha" type="matrix" values="0 0 0 0 0 0 0 0 0 0 0 0 0 0 0 0 0 0 127 0" result="hardAlpha"/>
<feOffset dx="-4" dy="-4"/>
<feGaussianBlur stdDeviation="9"/>
<feComposite in2="hardAlpha" operator="out"/>
<feColorMatrix type="matrix" values="0 0 0 0 0 0 0 0 0 0 0 0 0 0 0 0 0 0 0.25 0"/>
<feBlend mode="normal" in2="effect1_dropShadow_532_22363" result="effect2_dropShadow_532_22363"/>
<feBlend mode="normal" in="SourceGraphic" in2="effect2_dropShadow_532_22363" result="shape"/>
</filter>
<linearGradient id="paint0_linear_532_22363" x1="47.2616" y1="100.819" x2="148.711" y2="199.394" gradientUnits="userSpaceOnUse">
<stop stop-color="#2EE6A6"/>
<stop offset="0.5" stop-color="#2C9EEB"/>
<stop offset="1" stop-color="#6B3DF4"/>
</linearGradient>
<linearGradient id="paint1_linear_532_22363" x1="47.2616" y1="100.819" x2="148.711" y2="199.394" gradientUnits="userSpaceOnUse">
<stop stop-color="#2EE6A6"/>
<stop offset="0.5" stop-color="#2C9EEB"/>
<stop offset="1" stop-color="#6B3DF4"/>
</linearGradient>
</defs>
</svg>
